{"title":"Food Network Star Salvation S12 Complete WebRip h264 360p","uid":15401203,"size":467615649,"categoryP":"video","categoryS":"tv_shows","magnet":"?xt=urn:btih:baf1c671f361644c4f98e8a38fee495ecd3b3a4a&amp;dn=Food+Network+Star+Salvation+S12+Complete+WebRip+h264+360p&amp;tr=udp%3A%2F%2Ftracker.leechers-paradise.org%3A6969&amp;tr=udp%3A%2F%2Fzer0day.ch%3A1337&amp;tr=udp%3A%2F%2Fopen.demonii.com%3A1337&amp;tr=udp%3A%2F%2Ftracker.coppersurfer.tk%3A6969&amp;tr=udp%3A%2F%2Fexodus.desync.com%3A6969","seeders":0,"leechers":1,"uploader":"WhiLue","files":6,"time":1469457403,"description":"screenshot: http://imgur.com/dJC5uXS\r\n\r\n\r\nFormat                      : MPEG-4\r\nFormat profile              : Base Media\r\nCodec ID                    : isom (isom/iso2/avc1/mp41)\r\nFile size                   : 71.9 MiB\r\nDuration                    : 12mn 16s\r\nOverall bit rate mode       : Variable\r\nOverall bit rate            : 819 Kbps\r\nEncoded date                : UTC 1970-01-01 00:00:00\r\nTagged date                 : UTC 1970-01-01 00:00:00\r\nWriting application         : Lavf52.32.0\r\n\r\nVideo\r\nID                          : 1\r\nFormat                      : AVC\r\nFormat/Info                 : Advanced Video Codec\r\nFormat profile              :   \r\nFormat settings, CABAC      : No\r\nFormat settings, ReFrames   : 1 frame\r\nCodec ID                    : avc1\r\nCodec ID/Info               : Advanced Video Coding\r\nDuration                    : 12mn 16s\r\nBit rate                    : 703 Kbps\r\nWidth                       : 614 pixels\r\nHeight                      : 346 pixels\r\nDisplay aspect ratio        : 16:9\r\nFrame rate mode             : Constant\r\nFrame rate                  : 23.976 (23976/1000) fps\r\nColor space                 : YUV\r\nChroma subsampling          : 4:2:0\r\nBit depth                   : 8 bits\r\nScan type                   : Progressive\r\nBits/(Pixel*Frame)          : 0.138\r\nStream size                 : 61.7 MiB (86%)\r\nEncoded date                : UTC 1970-01-01 00:00:00\r\nTagged date                 : UTC 1970-01-01 00:00:00\r\n\r\nAudio\r\nID                          : 2\r\nFormat                      : AAC\r\nFormat/Info                 : Advanced Audio Codec\r\nFormat profile              : LC\r\nCodec ID                    : 40\r\nDuration                    : 12mn 16s\r\nBit rate mode               : Variable\r\nBit rate                    : 112 Kbps\r\nChannel(s)                  : 2 channels\r\nChannel positions           : Front: L R\r\nSampling rate               : 44.1 KHz\r\nFrame rate                  : 43.066 fps (1024 spf)\r\nCompression mode            : Lossy\r\nStream size                 : 9.82 MiB (14%)\r\nEncoded date                : UTC 1970-01-01 00:00:00\r\nTagged date                 : UTC 1970-01-01 00:00:00","torrent":{"xt":"urn:btih:baf1c671f361644c4f98e8a38fee495ecd3b3a4a","amp;dn":"Food+Network+Star+Salvation+S12+Complete+WebRip+h264+360p","amp;tr":["udp%3A%2F%2Ftracker.leechers-paradise.org%3A6969","udp%3A%2F%2Fzer0day.ch%3A1337","udp%3A%2F%2Fopen.demonii.com%3A1337","udp%3A%2F%2Ftracker.coppersurfer.tk%3A6969","udp%3A%2F%2Fexodus.desync.com%3A6969"],"infoHash":"baf1c671f361644c4f98e8a38fee495ecd3b3a4a","infoHashBuffer":{"type":"Buffer","data":[186,241,198,113,243,97,100,76,79,152,232,163,143,238,73,94,205,59,58,74]},"announce":[],"urlList":[]}}